# xmcd
#
# Track frame offsets: 
#        150
#        8390
#        18790
#        33070
#        48427
#        60852
#        75742
#        87652
#        99422
#        114460
#        135730
#
# Disc length: 2017 seconds
#
# Revision: 6
# Processed by: cddbd v1.5.2PL0 Copyright (c) Steve Scherf et al.
# Submitted via: ExactAudioCopyFreeDBPlugin 1.0
#
DISCID=7207df0b
DTITLE=Charlie McCoy - Harpin' The Blues
DYEAR=1991
DGENRE=Country
TTITLE0=After Hours
TTITLE1=Lovesick Blues
TTITLE2=(I Heard That) Lonesome Whistle
TTITLE3=Basin Street Blues
TTITLE4=A Tribute To Little Walter
TTITLE5=Columbus Stockade Blues
TTITLE6=Blue Yodel N°1 (T For Texas)
TTITLE7=Blues Stay Away From Me
TTITLE8=St. Louis Blues
TTITLE9=Night Life
TTITLE10=Working Man's Blues
EXTD=
EXTT0=
EXTT1=
EXTT2=
EXTT3=
EXTT4=
EXTT5=
EXTT6=
EXTT7=
EXTT8=
EXTT9=
EXTT10=
PLAYORDER=
